<svg width="20" height="20" viewBox="0 0 20 20" fill="none" xmlns="http://www.w3.org/2000/svg">
<rect x="0.5" y="0.5" width="19" height="19" rx="9.5" fill="#18181B"/>
<rect x="0.5" y="0.5" width="19" height="19" rx="9.5" stroke="#FE9A00" stroke-dasharray="3 3"/>
<path d="M13.2822 7.23145C14.0472 7.2315 14.7007 7.5021 15.2402 8.04102C15.7799 8.58022 16.0503 9.23434 16.0498 10C16.0493 10.7656 15.7794 11.4198 15.2402 11.959C14.7011 12.4981 14.0473 12.7681 13.2822 12.7686L10.9229 12.7676H10.873V12.001H13.2822C13.8332 12.0009 14.3033 11.8055 14.6953 11.4131C15.0877 11.0206 15.2832 10.5506 15.2832 10C15.2832 9.44944 15.0877 8.97936 14.6953 8.58691C14.3029 8.19449 13.8328 7.99908 13.2822 7.99902H10.873V7.23145H13.2822ZM9.12695 7.23145V7.99805H6.71777C6.16679 7.9981 5.69665 8.19354 5.30469 8.58594C4.9122 8.97886 4.7168 9.44938 4.7168 10C4.71682 10.5506 4.91228 11.0206 5.30469 11.4131C5.69711 11.8055 6.16724 12.0009 6.71777 12.001H9.12695V12.7676H6.71777C5.95271 12.7675 5.29889 12.4981 4.75977 11.959C4.22059 11.4198 3.95066 10.7656 3.9502 10C3.94974 9.23434 4.21968 8.58021 4.75977 8.04102C5.29977 7.50192 5.95354 7.23194 6.71777 7.23145H9.12695ZM12.3838 9.61621V10.3828H7.61621V9.61621H12.3838Z" fill="#FE9A00" stroke="#FE9A00" stroke-width="0.1"/>
</svg>
