<svg width="20" height="20" viewBox="0 0 20 20" fill="none" xmlns="http://www.w3.org/2000/svg">
<path d="M18.1602 5.28809V14.7109L10 19.4229L1.83984 14.7109V5.28809L10 0.576172L18.1602 5.28809Z" fill="#18181B" stroke="#FF46C7"/>
<g clip-path="url(#clip0_884_10674)">
<path d="M13.9569 8.22858C13.9568 8.07314 13.9116 7.92048 13.8261 7.7859C13.7405 7.65133 13.6175 7.53957 13.4694 7.46185L10.0568 5.68907C9.90858 5.61127 9.74044 5.57031 9.56929 5.57031C9.39813 5.57031 9.22999 5.61127 9.08177 5.68907L5.66916 7.46185C5.52108 7.53957 5.39809 7.65133 5.31252 7.7859C5.22695 7.92048 5.18182 8.07314 5.18164 8.22858V11.7742C5.18182 11.9296 5.22695 12.0823 5.31252 12.2168C5.39809 12.3514 5.52108 12.4632 5.66916 12.5409L9.08177 14.3137C9.22999 14.3915 9.39813 14.4324 9.56929 14.4324C9.74044 14.4324 9.90858 14.3915 10.0568 14.3137L13.4694 12.5409C13.6175 12.4632 13.7405 12.3514 13.8261 12.2168C13.9116 12.0823 13.9568 11.9296 13.9569 11.7742V8.22858Z" stroke="#FF46C7" stroke-linecap="round" stroke-linejoin="round"/>
<path d="M6.14453 7.78125L10.0003 9.99723L13.8562 7.78125" stroke="#FF46C7" stroke-linecap="round" stroke-linejoin="round"/>
<path d="M10 14.432V10" stroke="#FF46C7" stroke-linecap="round" stroke-linejoin="round"/>
</g>
<defs>
<clipPath id="clip0_884_10674">
<rect width="10.6367" height="10.6367" fill="white" transform="translate(4.68164 4.67969)"/>
</clipPath>
</defs>
</svg>
