<svg width="16" height="16" viewBox="0 0 16 16" fill="none" xmlns="http://www.w3.org/2000/svg">
<path d="M10.1299 2C10.4815 2.00501 10.8169 2.14873 11.0629 2.39987L13.5954 4.93237C13.8466 5.17846 13.9903 5.51381 13.9953 5.86539V12.6631C13.9953 13.0167 13.8549 13.3557 13.6049 13.6056C13.3549 13.8556 13.0159 13.996 12.6624 13.996H3.33216C2.97866 13.996 2.63963 13.8556 2.38966 13.6056C2.1397 13.3557 1.99927 13.0167 1.99927 12.6631V3.33289C1.99927 2.97939 2.1397 2.64036 2.38966 2.3904C2.63963 2.14043 2.97866 2 3.33216 2H10.1299Z" stroke="#D4D4D8" stroke-width="1.33289" stroke-linecap="round" stroke-linejoin="round"/>
<path d="M11.3295 13.9956V9.33051C11.3295 9.15376 11.2593 8.98424 11.1343 8.85926C11.0093 8.73428 10.8398 8.66406 10.6631 8.66406H5.33149C5.15473 8.66406 4.98522 8.73428 4.86024 8.85926C4.73525 8.98424 4.66504 9.15376 4.66504 9.33051V13.9956" stroke="#D4D4D8" stroke-width="1.33289" stroke-linecap="round" stroke-linejoin="round"/>
<path d="M4.66504 2V4.66579C4.66504 4.84254 4.73525 5.01205 4.86024 5.13704C4.98522 5.26202 5.15473 5.33223 5.33149 5.33223H9.99661" stroke="#D4D4D8" stroke-width="1.33289" stroke-linecap="round" stroke-linejoin="round"/>
</svg>
