<svg width="20" height="20" viewBox="0 0 20 20" fill="none" xmlns="http://www.w3.org/2000/svg">
<rect x="0.5" y="0.5" width="19" height="19" rx="2.5" fill="url(#paint0_linear_878_5394)"/>
<rect x="0.5" y="0.5" width="19" height="19" rx="2.5" stroke="#AD46FF"/>
<path d="M7.9 15.25H5.68333C5.4358 15.25 5.1984 15.1517 5.02337 14.9766C4.84833 14.8016 4.75 14.5642 4.75 14.3167V12.1C4.75 11.8525 4.84833 11.6151 5.02337 11.44C5.1984 11.265 5.4358 11.1667 5.68333 11.1667H7.9C8.14754 11.1667 8.38493 11.265 8.55997 11.44C8.735 11.6151 8.83333 11.8525 8.83333 12.1V14.3167C8.83333 14.5642 8.735 14.8016 8.55997 14.9766C8.38493 15.1517 8.14754 15.25 7.9 15.25ZM14.3167 15.25H12.1C11.8525 15.25 11.6151 15.1517 11.44 14.9766C11.265 14.8016 11.1667 14.5642 11.1667 14.3167V12.1C11.1667 11.8525 11.265 11.6151 11.44 11.44C11.6151 11.265 11.8525 11.1667 12.1 11.1667H14.3167C14.5642 11.1667 14.8016 11.265 14.9766 11.44C15.1517 11.6151 15.25 11.8525 15.25 12.1V14.3167C15.25 14.5642 15.1517 14.8016 14.9766 14.9766C14.8016 15.1517 14.5642 15.25 14.3167 15.25ZM7.9 8.83333H5.68333C5.4358 8.83333 5.1984 8.735 5.02337 8.55997C4.84833 8.38493 4.75 8.14754 4.75 7.9V5.68333C4.75 5.4358 4.84833 5.1984 5.02337 5.02337C5.1984 4.84833 5.4358 4.75 5.68333 4.75H7.9C8.02257 4.75 8.14393 4.77414 8.25717 4.82105C8.37041 4.86795 8.4733 4.9367 8.55997 5.02337C8.64663 5.11003 8.71538 5.21292 8.76229 5.32616C8.80919 5.4394 8.83333 5.56077 8.83333 5.68333V7.9C8.83333 8.02257 8.80919 8.14393 8.76229 8.25717C8.71538 8.37041 8.64663 8.4733 8.55997 8.55997C8.4733 8.64663 8.37041 8.71538 8.25717 8.76229C8.14393 8.80919 8.02257 8.83333 7.9 8.83333ZM12.8175 7.26767L13.0952 8.38067C13.1243 8.4985 13.2917 8.4985 13.3215 8.38067L13.5997 7.26767C13.6049 7.24725 13.6155 7.2286 13.6304 7.21371C13.6453 7.19882 13.6639 7.18823 13.6843 7.18308L14.7973 6.90483C14.9152 6.87567 14.9152 6.70767 14.7973 6.6785L13.6843 6.40025C13.6639 6.3951 13.6453 6.38452 13.6304 6.36962C13.6155 6.35473 13.6049 6.33609 13.5997 6.31567L13.3215 5.20267C13.2923 5.08483 13.1249 5.08483 13.0952 5.20267L12.8169 6.31567C12.8118 6.33609 12.8012 6.35473 12.7863 6.36962C12.7714 6.38452 12.7528 6.3951 12.7323 6.40025L11.6193 6.6785C11.5015 6.70767 11.5015 6.87567 11.6193 6.90483L12.7323 7.18308C12.7528 7.18823 12.7714 7.19882 12.7863 7.21371C12.8012 7.2286 12.8123 7.24725 12.8175 7.26767Z" stroke="#AD46FF" stroke-miterlimit="10" stroke-linecap="round" stroke-linejoin="round"/>
<defs>
<linearGradient id="paint0_linear_878_5394" x1="10" y1="20" x2="10" y2="-1.59722e-07" gradientUnits="userSpaceOnUse">
<stop stop-color="#1E1C23"/>
<stop offset="1" stop-color="#35194C"/>
</linearGradient>
</defs>
</svg>
