<svg width="16" height="16" viewBox="0 0 16 16" fill="none" xmlns="http://www.w3.org/2000/svg">
<path d="M5.6 14H3.06667C2.78377 14 2.51246 13.8876 2.31242 13.6876C2.11238 13.4875 2 13.2162 2 12.9333V10.4C2 10.1171 2.11238 9.84579 2.31242 9.64575C2.51246 9.44571 2.78377 9.33333 3.06667 9.33333H5.6C5.8829 9.33333 6.15421 9.44571 6.35425 9.64575C6.55429 9.84579 6.66667 10.1171 6.66667 10.4V12.9333C6.66667 13.2162 6.55429 13.4875 6.35425 13.6876C6.15421 13.8876 5.8829 14 5.6 14ZM12.9333 14H10.4C10.1171 14 9.84579 13.8876 9.64575 13.6876C9.44571 13.4875 9.33333 13.2162 9.33333 12.9333V10.4C9.33333 10.1171 9.44571 9.84579 9.64575 9.64575C9.84579 9.44571 10.1171 9.33333 10.4 9.33333H12.9333C13.2162 9.33333 13.4875 9.44571 13.6876 9.64575C13.8876 9.84579 14 10.1171 14 10.4V12.9333C14 13.2162 13.8876 13.4875 13.6876 13.6876C13.4875 13.8876 13.2162 14 12.9333 14ZM5.6 6.66667H3.06667C2.78377 6.66667 2.51246 6.55429 2.31242 6.35425C2.11238 6.15421 2 5.8829 2 5.6V3.06667C2 2.78377 2.11238 2.51246 2.31242 2.31242C2.51246 2.11238 2.78377 2 3.06667 2H5.6C5.74008 2 5.87878 2.02759 6.0082 2.0812C6.13761 2.1348 6.2552 2.21337 6.35425 2.31242C6.4533 2.41147 6.53187 2.52906 6.58547 2.65847C6.63908 2.78788 6.66667 2.92659 6.66667 3.06667V5.6C6.66667 5.74008 6.63908 5.87878 6.58547 6.0082C6.53187 6.13761 6.4533 6.2552 6.35425 6.35425C6.2552 6.4533 6.13761 6.53187 6.0082 6.58547C5.87878 6.63908 5.74008 6.66667 5.6 6.66667ZM11.22 4.87733L11.5373 6.14933C11.5707 6.284 11.762 6.284 11.796 6.14933L12.114 4.87733C12.1199 4.854 12.132 4.83269 12.149 4.81567C12.166 4.79865 12.1873 4.78655 12.2107 4.78067L13.4827 4.46267C13.6173 4.42933 13.6173 4.23733 13.4827 4.204L12.2107 3.886C12.1873 3.88011 12.166 3.86802 12.149 3.851C12.132 3.83398 12.1199 3.81267 12.114 3.78933L11.796 2.51733C11.7627 2.38267 11.5713 2.38267 11.5373 2.51733L11.2193 3.78933C11.2134 3.81267 11.2014 3.83398 11.1843 3.851C11.1673 3.86802 11.146 3.88011 11.1227 3.886L9.85067 4.204C9.716 4.23733 9.716 4.42933 9.85067 4.46267L11.1227 4.78067C11.146 4.78655 11.1673 4.79865 11.1843 4.81567C11.2014 4.83269 11.2141 4.854 11.22 4.87733Z" stroke="white" stroke-miterlimit="10" stroke-linecap="round" stroke-linejoin="round"/>
</svg>
