<svg width="20" height="20" viewBox="0 0 20 20" fill="none" xmlns="http://www.w3.org/2000/svg">
<path d="M10 2.03125C5.88203 2.03125 2.65625 3.88437 2.65625 6.25V13.75C2.65625 16.1156 5.88203 17.9688 10 17.9688C14.118 17.9688 17.3438 16.1156 17.3438 13.75V6.25C17.3438 3.88437 14.118 2.03125 10 2.03125ZM10 2.96875C13.4727 2.96875 16.4062 4.47109 16.4062 6.25C16.4062 8.02891 13.4727 9.53125 10 9.53125C6.52734 9.53125 3.59375 8.02891 3.59375 6.25C3.59375 4.47109 6.52734 2.96875 10 2.96875ZM16.4062 13.75C16.4062 15.5289 13.4727 17.0312 10 17.0312C6.52734 17.0312 3.59375 15.5289 3.59375 13.75V12.093C4.84375 13.3719 7.21641 14.2188 10 14.2188C12.7836 14.2188 15.1562 13.3719 16.4062 12.093V13.75ZM16.4062 10C16.4062 11.7789 13.4727 13.2812 10 13.2812C6.52734 13.2812 3.59375 11.7789 3.59375 10V8.34297C4.84375 9.62188 7.21641 10.4688 10 10.4688C12.7836 10.4688 15.1562 9.62188 16.4062 8.34297V10Z" fill="white"/>
</svg>
