<svg width="18" height="18" viewBox="0 0 18 18" fill="none" xmlns="http://www.w3.org/2000/svg">
<path d="M1.73989 13.1406C1.89902 13.1406 2.05163 13.2038 2.16416 13.3164C2.27668 13.4289 2.33989 13.5815 2.33989 13.7406V15.5406H4.13989C4.29902 15.5406 4.45163 15.6038 4.56416 15.7164C4.67668 15.8289 4.73989 15.9815 4.73989 16.1406C4.73989 16.2998 4.67668 16.4524 4.56416 16.5649C4.45163 16.6774 4.29902 16.7406 4.13989 16.7406H1.73989C1.58076 16.7406 1.42815 16.6774 1.31563 16.5649C1.20311 16.4524 1.13989 16.2998 1.13989 16.1406V13.7406C1.13989 13.5815 1.20311 13.4289 1.31563 13.3164C1.42815 13.2038 1.58076 13.1406 1.73989 13.1406ZM10.7399 15.5406C10.899 15.5406 11.0516 15.6038 11.1642 15.7164C11.2767 15.8289 11.3399 15.9815 11.3399 16.1406C11.3399 16.2998 11.2767 16.4524 11.1642 16.5649C11.0516 16.6774 10.899 16.7406 10.7399 16.7406H7.13989C6.98076 16.7406 6.82815 16.6774 6.71563 16.5649C6.60311 16.4524 6.53989 16.2998 6.53989 16.1406C6.53989 15.9815 6.60311 15.8289 6.71563 15.7164C6.82815 15.6038 6.98076 15.5406 7.13989 15.5406H10.7399ZM16.1399 13.1406C16.299 13.1406 16.4516 13.2038 16.5642 13.3164C16.6767 13.4289 16.7399 13.5815 16.7399 13.7406V16.1406C16.7399 16.2998 16.6767 16.4524 16.5642 16.5649C16.4516 16.6774 16.299 16.7406 16.1399 16.7406H13.7399C13.5808 16.7406 13.4282 16.6774 13.3156 16.5649C13.2031 16.4524 13.1399 16.2998 13.1399 16.1406C13.1399 15.9815 13.2031 15.8289 13.3156 15.7164C13.4282 15.6038 13.5808 15.5406 13.7399 15.5406H15.5387L15.5399 13.7406C15.5399 13.5815 15.6031 13.4289 15.7156 13.3164C15.8282 13.2038 15.9808 13.1406 16.1399 13.1406ZM1.73989 6.54063C1.89902 6.54063 2.05163 6.60384 2.16416 6.71636C2.27668 6.82888 2.33989 6.9815 2.33989 7.14063V10.7406C2.33989 10.8998 2.27668 11.0524 2.16416 11.1649C2.05163 11.2774 1.89902 11.3406 1.73989 11.3406C1.58076 11.3406 1.42815 11.2774 1.31563 11.1649C1.20311 11.0524 1.13989 10.8998 1.13989 10.7406V7.14063C1.13989 6.9815 1.20311 6.82888 1.31563 6.71636C1.42815 6.60384 1.58076 6.54063 1.73989 6.54063ZM16.1399 6.54063C16.299 6.54063 16.4516 6.60384 16.5642 6.71636C16.6767 6.82888 16.7399 6.9815 16.7399 7.14063V10.7406C16.7399 10.8998 16.6767 11.0524 16.5642 11.1649C16.4516 11.2774 16.299 11.3406 16.1399 11.3406C15.9808 11.3406 15.8282 11.2774 15.7156 11.1649C15.6031 11.0524 15.5399 10.8998 15.5399 10.7406V7.14063C15.5399 6.9815 15.6031 6.82888 15.7156 6.71636C15.8282 6.60384 15.9808 6.54063 16.1399 6.54063ZM4.13989 1.14063C4.29902 1.14063 4.45163 1.20384 4.56416 1.31636C4.67668 1.42888 4.73989 1.5815 4.73989 1.74063C4.73989 1.89976 4.67668 2.05237 4.56416 2.16489C4.45163 2.27741 4.29902 2.34063 4.13989 2.34063H2.33989V4.14063C2.33989 4.29976 2.27668 4.45237 2.16416 4.56489C2.05163 4.67741 1.89902 4.74063 1.73989 4.74063C1.58076 4.74063 1.42815 4.67741 1.31563 4.56489C1.20311 4.45237 1.13989 4.29976 1.13989 4.14063V1.74063C1.13989 1.5815 1.20311 1.42888 1.31563 1.31636C1.42815 1.20384 1.58076 1.14063 1.73989 1.14063H4.13989ZM16.1387 1.14063C16.2176 1.14047 16.2957 1.15587 16.3687 1.18595C16.4416 1.21604 16.5079 1.26021 16.5637 1.31594C16.6196 1.37167 16.6639 1.43786 16.6941 1.51074C16.7243 1.58361 16.7399 1.66173 16.7399 1.74063V4.14063C16.7399 4.29976 16.6767 4.45237 16.5642 4.56489C16.4516 4.67741 16.299 4.74063 16.1399 4.74063C15.9808 4.74063 15.8282 4.67741 15.7156 4.56489C15.6031 4.45237 15.5399 4.29976 15.5399 4.14063V2.34063H13.7399C13.5808 2.34063 13.4282 2.27741 13.3156 2.16489C13.2031 2.05237 13.1399 1.89976 13.1399 1.74063C13.1399 1.5815 13.2031 1.42888 13.3156 1.31636C13.4282 1.20384 13.5808 1.14063 13.7399 1.14063H16.1387ZM10.7387 1.14063C10.8978 1.14063 11.0504 1.20384 11.163 1.31636C11.2755 1.42888 11.3387 1.5815 11.3387 1.74063C11.3387 1.89976 11.2755 2.05237 11.163 2.16489C11.0504 2.27741 10.8978 2.34063 10.7387 2.34063H7.13989C6.98076 2.34063 6.82815 2.27741 6.71563 2.16489C6.60311 2.05237 6.53989 1.89976 6.53989 1.74063C6.53989 1.5815 6.60311 1.42888 6.71563 1.31636C6.82815 1.20384 6.98076 1.14063 7.13989 1.14063H10.7387Z" fill="white"/>
</svg>
